<svg width="104" height="36" viewBox="0 0 104 36" fill="none" xmlns="http://www.w3.org/2000/svg">
<path d="M14.1388 9.08V12.824H9.62678V26H4.92278V12.824H0.458781V9.08H14.1388ZM26.5832 23.24H20.5832L19.6712 26H14.7272L20.8952 9.08H26.3192L32.4632 26H27.4952L26.5832 23.24ZM25.4072 19.64L23.5832 14.168L21.7832 19.64H25.4072ZM40.3803 26.168C38.4123 26.168 36.7963 25.704 35.5323 24.776C34.2683 23.832 33.5883 22.488 33.4923 20.744H38.5083C38.5563 21.336 38.7323 21.768 39.0363 22.04C39.3403 22.312 39.7323 22.448 40.2123 22.448C40.6443 22.448 40.9963 22.344 41.2683 22.136C41.5563 21.912 41.7003 21.608 41.7003 21.224C41.7003 20.728 41.4683 20.344 41.0043 20.072C40.5403 19.8 39.7883 19.496 38.7483 19.16C37.6443 18.792 36.7483 18.44 36.0603 18.104C35.3883 17.752 34.7963 17.248 34.2843 16.592C33.7883 15.92 33.5403 15.048 33.5403 13.976C33.5403 12.888 33.8123 11.96 34.3563 11.192C34.9003 10.408 35.6523 9.816 36.6123 9.416C37.5723 9.016 38.6603 8.816 39.8763 8.816C41.8443 8.816 43.4123 9.28 44.5803 10.208C45.7643 11.12 46.3963 12.408 46.4763 14.072H41.3643C41.3483 13.56 41.1883 13.176 40.8843 12.92C40.5963 12.664 40.2203 12.536 39.7563 12.536C39.4043 12.536 39.1163 12.64 38.8923 12.848C38.6683 13.056 38.5563 13.352 38.5563 13.736C38.5563 14.056 38.6763 14.336 38.9163 14.576C39.1723 14.8 39.4843 15 39.8523 15.176C40.2203 15.336 40.7643 15.544 41.4843 15.8C42.5563 16.168 43.4363 16.536 44.1243 16.904C44.8283 17.256 45.4283 17.76 45.9243 18.416C46.4363 19.056 46.6923 19.872 46.6923 20.864C46.6923 21.872 46.4363 22.776 45.9243 23.576C45.4283 24.376 44.7003 25.008 43.7403 25.472C42.7963 25.936 41.6763 26.168 40.3803 26.168ZM58.8872 26L53.5832 18.584V26H48.8792V9.08H53.5832V16.376L58.8392 9.08H64.2632L58.0472 17.288L64.5752 26H58.8872Z" fill="black"/>
<rect x="68" width="36" height="32" fill="#F8B803"/>
<path d="M81.1144 9.08V26H76.4104V9.08H81.1144ZM96.5372 9.08V12.824H92.0252V26H87.3212V12.824H82.8572V9.08H96.5372Z" fill="white"/>
</svg>
